<svg xmlns="http://www.w3.org/2000/svg" width="143.958" height="133.026" viewBox="0 0 143.958 133.026">
  <g id="Group_3738" data-name="Group 3738" transform="translate(0 0)">
    <path id="Path_3710" data-name="Path 3710" d="M213.464,143.094a8.735,8.735,0,0,0-8.725,8.725v100.52a8.735,8.735,0,0,0,8.725,8.725H287.2a8.735,8.735,0,0,0,8.725-8.725V151.819a8.735,8.735,0,0,0-8.725-8.725Z" transform="translate(-204.739 -132.47)" fill="#3f3d56"/>
    <rect id="Rectangle_2234" data-name="Rectangle 2234" width="82.115" height="105.576" transform="translate(4.537 16.821)" fill="#fff"/>
    <rect id="Rectangle_2235" data-name="Rectangle 2235" width="60.645" height="3.984" transform="translate(15.272 35.745)" fill="#2094cd"/>
    <rect id="Rectangle_2236" data-name="Rectangle 2236" width="60.645" height="3.984" transform="translate(15.272 46.369)" fill="#2094cd"/>
    <rect id="Rectangle_2237" data-name="Rectangle 2237" width="60.645" height="3.984" transform="translate(15.272 56.993)" fill="#2094cd"/>
    <rect id="Rectangle_2238" data-name="Rectangle 2238" width="60.645" height="3.984" transform="translate(15.272 67.617)" fill="#2094cd"/>
    <rect id="Rectangle_2239" data-name="Rectangle 2239" width="60.645" height="3.984" transform="translate(15.272 78.241)" fill="#2094cd"/>
    <rect id="Rectangle_2240" data-name="Rectangle 2240" width="60.645" height="3.984" transform="translate(15.272 88.865)" fill="#2094cd"/>
    <rect id="Rectangle_2241" data-name="Rectangle 2241" width="60.645" height="3.984" transform="translate(15.272 99.489)" fill="#2094cd"/>
    <rect id="Rectangle_2242" data-name="Rectangle 2242" width="61.134" height="78.601" transform="translate(16.635 21.132) rotate(-10.37)" fill="#e6e6e6"/>
    <rect id="Rectangle_2243" data-name="Rectangle 2243" width="45.15" height="2.966" transform="translate(27.033 33.552) rotate(-10.37)" fill="#2094cd"/>
    <rect id="Rectangle_2244" data-name="Rectangle 2244" width="45.15" height="2.966" transform="translate(28.457 41.332) rotate(-10.37)" fill="#2094cd"/>
    <rect id="Rectangle_2245" data-name="Rectangle 2245" width="45.15" height="2.966" transform="translate(29.88 49.112) rotate(-10.37)" fill="#2094cd"/>
    <rect id="Rectangle_2246" data-name="Rectangle 2246" width="45.15" height="2.966" transform="translate(31.304 56.893) rotate(-10.37)" fill="#2094cd"/>
    <rect id="Rectangle_2247" data-name="Rectangle 2247" width="45.15" height="2.966" transform="translate(32.728 64.673) rotate(-10.37)" fill="#2094cd"/>
    <rect id="Rectangle_2248" data-name="Rectangle 2248" width="45.15" height="2.966" transform="translate(34.152 72.453) rotate(-10.37)" fill="#2094cd"/>
    <rect id="Rectangle_2249" data-name="Rectangle 2249" width="45.15" height="2.966" transform="translate(35.575 80.233) rotate(-10.37)" fill="#2094cd"/>
    <rect id="Rectangle_2250" data-name="Rectangle 2250" width="17.298" height="22.24" transform="translate(102.319 97.819) rotate(-10.37)" fill="#e6e6e6"/>
    <rect id="Rectangle_2251" data-name="Rectangle 2251" width="12.775" height="0.839" transform="translate(105.261 101.334) rotate(-10.37)" fill="#fff"/>
    <rect id="Rectangle_2252" data-name="Rectangle 2252" width="12.775" height="0.839" transform="translate(105.664 103.535) rotate(-10.37)" fill="#fff"/>
    <rect id="Rectangle_2253" data-name="Rectangle 2253" width="12.775" height="0.839" transform="translate(106.067 105.737) rotate(-10.37)" fill="#fff"/>
    <rect id="Rectangle_2254" data-name="Rectangle 2254" width="12.775" height="0.839" transform="translate(106.47 107.938) rotate(-10.37)" fill="#fff"/>
    <rect id="Rectangle_2255" data-name="Rectangle 2255" width="12.775" height="0.839" transform="translate(106.873 110.14) rotate(-10.37)" fill="#fff"/>
    <rect id="Rectangle_2256" data-name="Rectangle 2256" width="12.775" height="0.839" transform="translate(107.276 112.341) rotate(-10.37)" fill="#fff"/>
    <rect id="Rectangle_2257" data-name="Rectangle 2257" width="12.775" height="0.839" transform="translate(107.678 114.542) rotate(-10.37)" fill="#fff"/>
    <path id="Path_3711" data-name="Path 3711" d="M383.833,90.287H376.6V88.806a4.052,4.052,0,0,0-4.052-4.052h-7.832a4.052,4.052,0,0,0-4.052,4.052v1.481h-7.236a4.052,4.052,0,0,0-4.052,4.052v11.22h38.512V94.339a4.052,4.052,0,0,0-4.052-4.052Z" transform="translate(-323.034 -84.754)" fill="#3f3d56"/>
    <path id="Path_3712" data-name="Path 3712" d="M438.675,694.846a12.747,12.747,0,0,1,3.847-2.042,4.046,4.046,0,0,1,3.81.7,2.334,2.334,0,0,1,.564,2.951,1.875,1.875,0,0,1-1.242.9,1.5,1.5,0,0,1-1.346-.526,1.373,1.373,0,0,1-.343-1.348,1.767,1.767,0,0,1,1.132-.961,8.382,8.382,0,0,1,1.688-.349l2.348-.321,9.609-1.316,10.7-1.465a.334.334,0,0,0,.232-.408.341.341,0,0,0-.408-.232l-21.294,2.915c-.77.105-1.551.181-2.314.336a3.89,3.89,0,0,0-1.661.69,1.982,1.982,0,0,0-.009,3.081,2.2,2.2,0,0,0,3.162-.237,2.867,2.867,0,0,0,.217-3.513A4.259,4.259,0,0,0,443.216,692a11.319,11.319,0,0,0-4.876,2.274c-.35.24-.019.816.335.573Z" transform="translate(-395.678 -580.127)" fill="#3f3d56"/>
    <path id="Path_3713" data-name="Path 3713" d="M850.765,579.591l.221,2.213s-1.328,4.869,1.549,4.869.664-4.869.664-4.869l.221-1.771Z" transform="translate(-733.051 -489.479)" fill="#a0616a"/>
    <path id="Path_3714" data-name="Path 3714" d="M947.313,539.1l-1.015,1.979s-3.759,3.369-1.342,4.93,3.2-3.729,3.2-3.729l1.147-1.367Z" transform="translate(-809.495 -456.36)" fill="#a0616a"/>
    <path id="Path_3715" data-name="Path 3715" d="M870.591,582.576l3.1,21.027,1.549,15.051s1.328,3.32,5.755.443l-.664-8.632-.443-7.747s-.443-7.525-.885-8.853.221-5.755.221-5.755l1.771-7.3Z" transform="translate(-749.336 -490.472)" fill="#2f2e41"/>
    <path id="Path_3716" data-name="Path 3716" d="M875.443,786.211l-1.771,1.992s-2.656-.885-3.32.885,5.091,2.213,5.091,2.213,5.976.443,5.976,0-.16-3.828-.965-4.017S875.443,786.211,875.443,786.211Z" transform="translate(-749.097 -658.473)" fill="#2f2e41"/>
    <path id="Path_3717" data-name="Path 3717" d="M916.777,577.493l3.1,22.133,1.549,15.051s1.328,3.32,5.755.443l-.664-8.632-.443-7.747s-.443-7.525-.885-8.853.221-5.755.221-5.755l-.443-8.189Z" transform="translate(-787.111 -486.496)" fill="#2f2e41"/>
    <path id="Path_3718" data-name="Path 3718" d="M921.629,786.211l-1.771,1.992s-2.656-.885-3.32.885,5.091,2.213,5.091,2.213,5.976.443,5.976,0-.16-3.828-.965-4.017S921.629,786.211,921.629,786.211Z" transform="translate(-786.872 -658.473)" fill="#2f2e41"/>
    <circle id="Ellipse_83" data-name="Ellipse 83" cx="4.648" cy="4.648" r="4.648" transform="translate(118.378 46.731)" fill="#a0616a"/>
    <path id="Path_3719" data-name="Path 3719" d="M677.516,293.685l1.992,3.32-5.091,2.213-.664-3.984Z" transform="translate(-551.059 -240.204)" fill="#a0616a"/>
    <path id="Path_3720" data-name="Path 3720" d="M860.214,394.738s-4.648-.443-6.419,2.435l-4.369,3.32a2.518,2.518,0,0,0-.973,2.335l3.792,28.651,5.533-.221,9.075-1.771,2.656-.664-1.328-11.731s-1.549-4.648.221-7.747l-.885-10.845-6.2-2.435Z" transform="translate(-731.213 -338.269)" fill="#095e88"/>
    <path id="Path_3721" data-name="Path 3721" d="M848.053,428.825l-.332-.553s-.443,0-.443.885-.775,20.031-.775,20.031l-.221,7.3,4.205.443,1.549-13.723-.664-9.075Z" transform="translate(-729.454 -365.716)" fill="#095e88"/>
    <path id="Path_3722" data-name="Path 3722" d="M936.224,413.079l3.1.443a20.57,20.57,0,0,1,3.1,4.205c1.328,2.435,5.312,7.083,4.427,10.624a98.786,98.786,0,0,1-3.541,9.96L939.1,436.54s3.32-7.747,3.1-8.411-2.877-4.648-2.877-4.648Z" transform="translate(-803.017 -353.29)" fill="#095e88"/>
    <path id="Path_3723" data-name="Path 3723" d="M853.044,336.222s-3.763-.221-1.328-2.656c0,0,1.992-.885,2.877-.443,0,0,1.328-.885,1.328-.443,0,0,4.648-1.328,5.312,3.32s-.443,6.861-.443,6.861l-3.1-.221s.664-3.763-1.771-3.32c0,0-1.992.664-2.213,0S853.044,336.222,853.044,336.222Z" transform="translate(-733.227 -287.389)" fill="#2f2e41"/>
    <path id="Path_3724" data-name="Path 3724" d="M666.682,402.664l1.992-13.28-1.328-8.189.443,8.907-1.328,12.562Z" transform="translate(-545.095 -311.778)" opacity="0.2"/>
  </g>
</svg>
