<svg xmlns="http://www.w3.org/2000/svg" width="14.515" height="17.69" viewBox="0 0 14.515 17.69">
  <path id="Icon_material-notifications-none" data-name="Icon material-notifications-none" d="M10.591,19.774a1.82,1.82,0,0,0,1.814-1.814H8.776a1.82,1.82,0,0,0,1.814,1.814Zm5.443-5.443V9.794c0-2.785-1.479-5.117-4.082-5.733V3.444a1.361,1.361,0,1,0-2.722,0v.617C6.636,4.678,5.148,7,5.148,9.794V14.33L3.333,16.145v.907H17.848v-.907Zm-1.814.907H6.962V9.794c0-2.25,1.37-4.082,3.629-4.082S14.22,7.545,14.22,9.794Z" transform="translate(-3.333 -2.083)" fill="#858585"/>
</svg>
