<svg xmlns="http://www.w3.org/2000/svg" width="41.44" height="27.681" viewBox="0 0 41.44 27.681">
  <path id="Icon_payment-cash" data-name="Icon payment-cash" d="M45.023,10.459V35.387a1.776,1.776,0,0,1-.4.971,1.323,1.323,0,0,1-.971.405H4.959a1.318,1.318,0,0,1-.971-.4,1.769,1.769,0,0,1-.4-.971V10.459a1.774,1.774,0,0,1,.4-.971,1.325,1.325,0,0,1,.971-.4H43.647a1.327,1.327,0,0,1,.971.4,1.783,1.783,0,0,1,.405.971ZM42.271,28.427V17.42A5.294,5.294,0,0,1,38.386,15.8a5.388,5.388,0,0,1-1.619-3.966H11.838A5.393,5.393,0,0,1,10.22,15.8,5.3,5.3,0,0,1,6.334,17.42V28.427a5.3,5.3,0,0,1,3.885,1.619,5.4,5.4,0,0,1,1.619,3.966H36.767a5.392,5.392,0,0,1,1.619-3.966,5.3,5.3,0,0,1,3.885-1.618Zm-11.088-5.5a14.184,14.184,0,0,1-.4,3.076,10.372,10.372,0,0,1-1.295,2.914A7.034,7.034,0,0,1,27.3,31.1a5.944,5.944,0,0,1-5.989,0,7.011,7.011,0,0,1-2.185-2.185A10.345,10.345,0,0,1,17.829,26a14.117,14.117,0,0,1-.4-3.076,14.13,14.13,0,0,1,.4-3.076,10.34,10.34,0,0,1,1.295-2.914,7.034,7.034,0,0,1,2.185-2.185,5.943,5.943,0,0,1,5.988,0,7.07,7.07,0,0,1,2.185,2.185,10.376,10.376,0,0,1,1.295,2.914,14.171,14.171,0,0,1,.405,3.076Zm-11.007,5.5h8.255V26.4H25.679V16.692H23.251l-3.238,2.994,1.7,1.7a13.252,13.252,0,0,0,1.133-1.214h.081V26.4H20.175v2.024Z" transform="translate(-3.583 -9.083)" fill="#344f64"/>
</svg>
