<svg xmlns="http://www.w3.org/2000/svg" width="30" height="24.898" viewBox="0 0 30 24.898">
  <path id="Icon_simple-wechat" data-name="Icon simple-wechat" d="M29.426,15.084a8.267,8.267,0,0,0-3.865-3.939,10.639,10.639,0,0,0-9.536.037,7.907,7.907,0,0,0-4.224,5.2,6.681,6.681,0,0,0,.85,4.951,9.128,9.128,0,0,0,6.214,4.06,11.442,11.442,0,0,0,5.422-.356c1.052.407,1.99,1.067,3.01,1.557-.264-.884-.545-1.757-.845-2.627a8.5,8.5,0,0,0,2.8-3.1A6.719,6.719,0,0,0,29.426,15.084ZM17.021,3.252A12.643,12.643,0,0,0,6.664,2.446,10.54,10.54,0,0,0,1.232,6.721a8.017,8.017,0,0,0-1,6.146A9.413,9.413,0,0,0,4.31,18.383c-.375,1.062-.731,2.124-1.069,3.194,1.219-.637,2.437-1.3,3.657-1.951a13.577,13.577,0,0,0,4.575.647,7.7,7.7,0,0,1-.319-3.689,7.827,7.827,0,0,1,2.492-4.442,10.81,10.81,0,0,1,8.12-2.664,9.462,9.462,0,0,0-4.78-6.225h.034Zm2.166,12.486a1.231,1.231,0,1,1-1.575-1.589,1.244,1.244,0,0,1,1.575,1.589Zm5.994.115a1.257,1.257,0,0,1-1.97.337,1.872,1.872,0,0,1-.43-.912,1.383,1.383,0,0,1,1.162-1.194,1.253,1.253,0,0,1,1.219,1.77h.019ZM16.237,7.786a1.808,1.808,0,1,1,0-.015l0,.015Zm-7.574.3a1.536,1.536,0,1,1-2-1.816,1.545,1.545,0,0,1,2,1.816Z" transform="translate(0.001 -1.7)" fill="#344f64"/>
</svg>
