<svg xmlns="http://www.w3.org/2000/svg" width="25.512" height="25.511" viewBox="0 0 25.512 25.511">
  <g id="checklist_1_" data-name="checklist (1)" transform="translate(0 -0.007)">
    <g id="Group_3759" data-name="Group 3759" transform="translate(4.788 0.007)">
      <path id="Path_3872" data-name="Path 3872" d="M207.456,24.932a1.171,1.171,0,0,0,.854-.383,1.2,1.2,0,0,0,.3-.786V1.184A1.178,1.178,0,0,0,207.433.007H192.7a2.652,2.652,0,0,1,.652,1.037h.869A1.181,1.181,0,0,1,195.4,2.133h2.9a1.9,1.9,0,0,1,1.9,1.892V24.94l7.262-.008Z" transform="translate(-187.888 -0.007)" fill="#344f64"/>
      <path id="Path_3873" data-name="Path 3873" d="M100.035,18.457a1.032,1.032,0,0,0-2.063,0,.819.819,0,0,1-.819.8h-1.09c0,.183,0,.72,0,.9h5.88c0-.241,0-.665,0-.9h-1.09A.82.82,0,0,1,100.035,18.457Z" transform="translate(-96.064 -16.584)" fill="#344f64"/>
    </g>
    <path id="Path_3874" data-name="Path 3874" d="M15.2,75.559H12.306v.172a1.277,1.277,0,0,1-1.276,1.276h-6.6A1.277,1.277,0,0,1,3.15,75.731v-.172H.257A.255.255,0,0,0,0,75.812v21.24a.255.255,0,0,0,.257.253H15.2a.255.255,0,0,0,.257-.253V75.812A.255.255,0,0,0,15.2,75.559ZM1.8,80.353a.825.825,0,0,1,1.165-.058l.406.367,1.514-1.729A.825.825,0,0,1,6.126,80.02L4.061,82.379a.849.849,0,0,1-1.174.068L1.86,81.518A.825.825,0,0,1,1.8,80.353Zm11.233,15.1H2.345a.825.825,0,0,1,0-1.649H13.034a.825.825,0,0,1,0,1.649ZM1.8,89.807a.825.825,0,0,1,1.165-.058l.406.367,1.514-1.729a.825.825,0,1,1,1.241,1.087L4.061,91.833a.849.849,0,0,1-1.174.068L1.86,90.971A.825.825,0,0,1,1.8,89.807Zm11.233,2.272H8.4a.825.825,0,0,1,0-1.649h4.636a.825.825,0,0,1,0,1.649Zm0-6.03H2.345a.825.825,0,0,1,0-1.649H13.034a.825.825,0,0,1,0,1.649Zm0-3.421H8.4a.825.825,0,1,1,0-1.649h4.636a.825.825,0,1,1,0,1.649Z" transform="translate(0 -71.786)" fill="#344f64"/>
  </g>
</svg>
