<svg xmlns="http://www.w3.org/2000/svg" width="17.086" height="17.549" viewBox="0 0 17.086 17.549">
  <g id="Union_5" data-name="Union 5" transform="translate(17.086 17.549) rotate(180)" fill="none">
    <path d="M4.531,17.549V13.866H1A1,1,0,0,1,.157,12.33L7.7.464a1,1,0,0,1,1.688,0L16.928,12.33a1,1,0,0,1-.844,1.536H12.555v3.683Z" stroke="none"/>
    <path d="M 11.0550012588501 16.04910087585449 L 11.0550012588501 12.36630058288574 L 15.17390537261963 12.36630058288574 L 8.542803764343262 1.931743979454041 L 1.911693334579468 12.36630058288574 L 6.030601024627686 12.36630058288574 L 6.030601024627686 16.04910087585449 L 11.0550012588501 16.04910087585449 M 12.5550012588501 17.54910087585449 L 4.530601024627686 17.54910087585449 L 4.530601024627686 13.86630058288574 L 1.001700878143311 13.86630058288574 C 0.2133008986711502 13.86630058288574 -0.265499085187912 12.9951000213623 0.1575009077787399 12.32999992370605 L 7.698600769042969 0.4635002315044403 C 8.091900825500488 -0.15479975938797 8.99370002746582 -0.15479975938797 9.387001037597656 0.4635002315044403 L 16.9281005859375 12.32999992370605 C 17.35110092163086 12.9951000213623 16.87320137023926 13.86630058288574 16.08390045166016 13.86630058288574 L 12.5550012588501 13.86630058288574 L 12.5550012588501 17.54910087585449 Z" stroke="none" fill="#00710b"/>
  </g>
</svg>
