<svg xmlns="http://www.w3.org/2000/svg" width="15.79" height="13.909" viewBox="0 0 15.79 13.909">
  <g id="filter_1_" data-name="filter (1)" transform="translate(0 44.409) rotate(-90)">
    <path id="Path_317" data-name="Path 317" d="M32.35,0h-.925V11.164H30.5V13.94h.925v1.85h.925V13.94h.925V11.164H32.35Zm0,13.015h-.925v-.925h.925Z" fill="#2094cd"/>
    <path id="Path_318" data-name="Path 318" d="M394.276,11.164h-.925V0h-.925V11.164H391.5V13.94h.925v1.85h.925V13.94h.925Zm-.925,1.85h-.925v-.925h.925Z" transform="translate(-349.867)" fill="#2094cd"/>
    <path id="Path_319" data-name="Path 319" d="M273.35,0h-.925V6.847H271.5V9.622h.925V15.79h.925V9.622h.925V6.847h-.925Zm0,8.7h-.925V7.772h.925Z" transform="translate(-233.567)" fill="#2094cd"/>
    <path id="Path_320" data-name="Path 320" d="M152.35,0h-.925V1.655H150.5V4.43h.925V15.79h.925V4.43h.925V1.655h-.925Zm0,3.505h-.925V2.58h.925Z" transform="translate(-116.299)" fill="#2094cd"/>
  </g>
</svg>
