<svg xmlns="http://www.w3.org/2000/svg" width="36.878" height="33.754" viewBox="0 0 36.878 33.754">
  <g id="Group_3912" data-name="Group 3912" transform="translate(-296.122 -735)">
    <path id="Icon_ionic-ios-call" data-name="Icon ionic-ios-call" d="M34.358,28.584a25.834,25.834,0,0,0-5.4-3.611c-1.617-.777-2.21-.761-3.355.064-.953.689-1.569,1.329-2.666,1.089s-3.259-1.874-5.356-3.963-3.731-4.26-3.963-5.356.408-1.713,1.089-2.666c.825-1.145.849-1.737.064-3.355a25.323,25.323,0,0,0-3.611-5.4C9.986,4.211,9.722,4.468,9.073,4.7A11.892,11.892,0,0,0,7.16,5.717a5.773,5.773,0,0,0-2.3,2.426c-.456.985-.985,2.818,1.705,7.606A42.443,42.443,0,0,0,14.029,25.7h0l.008.008.008.008h0A42.609,42.609,0,0,0,24,33.18c4.788,2.69,6.622,2.162,7.606,1.705a5.674,5.674,0,0,0,2.426-2.3,11.891,11.891,0,0,0,1.017-1.914C35.279,30.025,35.543,29.761,34.358,28.584Z" transform="translate(291.632 733.498)" fill="#fff"/>
    <path id="Icon_material-chat" data-name="Icon material-chat" d="M17.4,3H4.6A1.6,1.6,0,0,0,3.008,4.6L3,19l3.2-3.2H17.4A1.6,1.6,0,0,0,19,14.2V4.6A1.6,1.6,0,0,0,17.4,3ZM6.2,8.6h9.6v1.6H6.2Zm6.4,4H6.2V11h6.4Zm3.2-4.8H6.2V6.2h9.6Z" transform="translate(314 732)" fill="#fff"/>
  </g>
</svg>
