<svg id="information-button" xmlns="http://www.w3.org/2000/svg" width="30" height="30" viewBox="0 0 30 30">
  <path id="Path_3853" data-name="Path 3853" d="M15,0A15,15,0,1,0,30,15,15,15,0,0,0,15,0Zm3.123,23.247q-1.158.457-1.848.7a4.874,4.874,0,0,1-1.6.24,3.194,3.194,0,0,1-2.18-.684,2.209,2.209,0,0,1-.776-1.736,6.306,6.306,0,0,1,.057-.837c.039-.284.1-.6.187-.964l.966-3.413c.085-.328.159-.639.217-.928a4.116,4.116,0,0,0,.086-.8,1.238,1.238,0,0,0-.269-.91,1.529,1.529,0,0,0-1.032-.255,2.709,2.709,0,0,0-.768.114c-.26.08-.486.152-.672.223l.255-1.051q.949-.387,1.816-.662A5.365,5.365,0,0,1,14.2,12a3.134,3.134,0,0,1,2.149.673,2.236,2.236,0,0,1,.754,1.747q0,.223-.052.783a5.243,5.243,0,0,1-.193,1.03l-.961,3.4c-.079.273-.149.585-.212.935a4.942,4.942,0,0,0-.093.795,1.142,1.142,0,0,0,.3.924,1.7,1.7,0,0,0,1.05.246,3.046,3.046,0,0,0,.795-.123,4.52,4.52,0,0,0,.643-.216Zm-.17-13.813a2.294,2.294,0,0,1-1.619.625,2.318,2.318,0,0,1-1.625-.625,1.994,1.994,0,0,1-.677-1.515A2.015,2.015,0,0,1,14.707,6.4a2.3,2.3,0,0,1,1.625-.631,2.276,2.276,0,0,1,1.619.631,2.046,2.046,0,0,1,0,3.034Z" fill="#344f64"/>
</svg>
