<svg xmlns="http://www.w3.org/2000/svg" xmlns:xlink="http://www.w3.org/1999/xlink" width="24" height="21" viewBox="0 0 24 21">
  <defs>
    <clipPath id="clip-path">
      <rect id="Rectangle_2163" data-name="Rectangle 2163" width="24" height="21" transform="translate(-0.658 0.281)" fill="#2094cd" stroke="#707070" stroke-width="1"/>
    </clipPath>
  </defs>
  <g id="Mask_Group_275" data-name="Mask Group 275" transform="translate(0.658 -0.281)" clip-path="url(#clip-path)">
    <g id="translate_2_" data-name="translate (2)" transform="translate(2.586 2.223)">
      <path id="Path_3616" data-name="Path 3616" d="M18.684,15.59c-.066-.2-.337-.294-.616-.294s-.542.094-.608.294l-1.415,4.2a.357.357,0,0,0-.015.067c0,.214.344.361.6.361.161,0,.286-.047.322-.174l.278-.888h1.678l.279.888c.037.127.161.174.322.174.257,0,.6-.153.6-.361a.271.271,0,0,0-.015-.067Zm-1.253,2.885.638-2.05.638,2.05Zm0,0" transform="translate(-4.622 -5.646)" fill="#2094cd"/>
      <path id="Path_3617" data-name="Path 3617" d="M17.267,7.152h-5.81V4.9l1.888-1.222a.487.487,0,0,0,0-.836L11.434,1.61A2.034,2.034,0,0,0,9.372,0H2.085A2,2,0,0,0,0,1.889v6.6a2,2,0,0,0,2.085,1.889H7.894v2.248L6.006,13.849a.487.487,0,0,0,0,.836l1.911,1.236a2.034,2.034,0,0,0,2.062,1.61h7.287a2,2,0,0,0,2.085-1.889v-6.6a2,2,0,0,0-2.085-1.889ZM2.085,9.352a.911.911,0,0,1-.951-.862v-6.6a.911.911,0,0,1,.951-.862H9.372a.911.911,0,0,1,.951.862.5.5,0,0,0,.237.418l1.48.957-1.48.957a.5.5,0,0,0-.237.418V7.152H9.979A2,2,0,0,0,7.894,9.041v.312Zm16.133,6.29a.911.911,0,0,1-.951.862H9.979a.911.911,0,0,1-.951-.862.5.5,0,0,0-.237-.418l-1.48-.957,1.48-.957a.5.5,0,0,0,.237-.418V9.041a.911.911,0,0,1,.951-.862h7.287a.911.911,0,0,1,.951.862Zm0,0" transform="translate(0 0)" fill="#2094cd"/>
      <path id="Path_3618" data-name="Path 3618" d="M9.517,6.6a.353.353,0,1,0,0-.7H7.8V5.042a.387.387,0,0,0-.772,0V5.9H5.313a.353.353,0,1,0,0,.7h.532a3.229,3.229,0,0,0,.965,1.933,3.121,3.121,0,0,1-1.5.377.353.353,0,1,0,0,.7,3.922,3.922,0,0,0,2.1-.6,3.923,3.923,0,0,0,2.1.6.353.353,0,1,0,0-.7,3.117,3.117,0,0,1-1.5-.377A3.229,3.229,0,0,0,8.985,6.6Zm-2.1,1.494A2.569,2.569,0,0,1,6.622,6.6H8.207A2.569,2.569,0,0,1,7.415,8.093Zm0,0" transform="translate(-1.465 -1.731)" fill="#2094cd"/>
    </g>
  </g>
</svg>
