<svg xmlns="http://www.w3.org/2000/svg" width="30" height="34.364" viewBox="0 0 30 34.364">
  <g id="product_1_" data-name="product (1)" transform="translate(0)">
    <path id="Path_3848" data-name="Path 3848" d="M122.3,18.189h12.081a1.006,1.006,0,0,0,1.007-1.007V5.034a1.006,1.006,0,0,0-1.007-1.007h-3.02V3.02a3.02,3.02,0,1,0-6.04,0V4.027H122.3a1.006,1.006,0,0,0-1.007,1.007V17.182A1.006,1.006,0,0,0,122.3,18.189ZM127.329,3.02a1.007,1.007,0,0,1,2.014,0V4.027h-2.014Zm0,0" transform="translate(-113.149)" fill="#344f64"/>
    <path id="Path_3849" data-name="Path 3849" d="M29.854,241.485a1.007,1.007,0,0,0-.861-.486,4.77,4.77,0,0,0-4.225,2.556l-3.088,5.894A3.014,3.014,0,0,1,19,251.067H12.167a1.007,1.007,0,1,1,0-2.013H19a1.006,1.006,0,0,0,.893-.54l1.154-2.2a.877.877,0,0,0-.778-1.285H9.807A5,5,0,0,0,6.248,246.5L.295,252.455a1.006,1.006,0,0,0,0,1.424l5.034,5.014a1.006,1.006,0,0,0,1.424,0l3.819-3.8H19a7.031,7.031,0,0,0,6.243-3.776l4.637-8.843a1,1,0,0,0-.029-.989Zm0,0" transform="translate(0 -224.825)" fill="#344f64"/>
  </g>
</svg>
