<svg xmlns="http://www.w3.org/2000/svg" width="20.184" height="20.184" viewBox="0 0 20.184 20.184">
  <g id="technical-support" transform="translate(0.25 0.25)">
    <path id="Path_305" data-name="Path 305" d="M3.462,15.222a1.6,1.6,0,0,0-.776.2A9.077,9.077,0,0,1,11.648.948.384.384,0,0,0,11.8.194,9.915,9.915,0,0,0,9.841,0,9.842,9.842,0,0,0,2.117,15.941a1.615,1.615,0,1,0,1.344-.719Zm.6,2.213a.846.846,0,1,1,.248-.6A.84.84,0,0,1,4.06,17.434Zm0,0" transform="translate(0 0.001)" fill="#858585" stroke="#c4c4c4" stroke-width="0.5"/>
    <path id="Path_306" data-name="Path 306" d="M207.457,34.561a1.611,1.611,0,1,0-.568.522,9.077,9.077,0,0,1-8.945,14.475.384.384,0,1,0-.151.754,9.922,9.922,0,0,0,1.941.191,9.842,9.842,0,0,0,7.724-15.942Zm-1.942-.3a.846.846,0,1,1,.6.248A.84.84,0,0,1,205.515,34.264Zm0,0" transform="translate(-189.891 -30.818)" fill="#858585" stroke="#c4c4c4" stroke-width="0.5"/>
    <path id="Path_307" data-name="Path 307" d="M79.4,87.609a.385.385,0,0,0,.384.384h2.4a.384.384,0,0,0,.384-.384v-.745a6.02,6.02,0,0,0,1.443-.6l.526.526a.384.384,0,0,0,.544,0l1.7-1.7a.385.385,0,0,0,0-.544l-.526-.526a6.02,6.02,0,0,0,.6-1.443h.742a.384.384,0,0,0,.384-.384v-2.4a.384.384,0,0,0-.384-.384h-.743a6.022,6.022,0,0,0-.6-1.443l.523-.523a.384.384,0,0,0,0-.544l-1.7-1.7a.384.384,0,0,0-.544,0l-.522.522a6.02,6.02,0,0,0-1.443-.6v-.738A.384.384,0,0,0,82.183,74h-2.4a.385.385,0,0,0-.384.384v.739a6.015,6.015,0,0,0-1.443.6L77.43,75.2a.385.385,0,0,0-.544,0l-1.7,1.7a.384.384,0,0,0,0,.544l.523.523a6.02,6.02,0,0,0-.6,1.443H74.37a.384.384,0,0,0-.384.384v2.4a.384.384,0,0,0,.384.385h.742a6.02,6.02,0,0,0,.6,1.443l-.526.526a.384.384,0,0,0,0,.544l1.7,1.7a.385.385,0,0,0,.272.113h0a.384.384,0,0,0,.272-.113l.526-.526a6.025,6.025,0,0,0,1.443.6ZM78.1,85.458a.385.385,0,0,0-.481.051l-.468.468L76,84.82l.468-.468a.384.384,0,0,0,.051-.48,5.262,5.262,0,0,1-.728-1.757.385.385,0,0,0-.376-.3h-.66V80.176h.659a.384.384,0,0,0,.376-.3,5.262,5.262,0,0,1,.728-1.757.384.384,0,0,0-.051-.48L76,77.17l1.156-1.156.464.464a.385.385,0,0,0,.481.051A5.26,5.26,0,0,1,79.86,75.8a.385.385,0,0,0,.3-.376v-.657H81.8v.656a.384.384,0,0,0,.3.376,5.264,5.264,0,0,1,1.757.728.384.384,0,0,0,.48-.051l.464-.464,1.156,1.156-.465.465a.384.384,0,0,0-.051.481,5.266,5.266,0,0,1,.728,1.757.384.384,0,0,0,.376.3h.661v1.635H86.55a.385.385,0,0,0-.376.3,5.261,5.261,0,0,1-.728,1.757.385.385,0,0,0,.051.481l.468.468-1.156,1.156-.468-.468a.384.384,0,0,0-.481-.051,5.266,5.266,0,0,1-1.757.728.384.384,0,0,0-.3.376v.663H80.164v-.663a.385.385,0,0,0-.3-.376A5.263,5.263,0,0,1,78.1,85.458Zm0,0" transform="translate(-71.14 -71.155)" fill="#858585" stroke="#c4c4c4" stroke-width="0.5"/>
    <path id="Path_308" data-name="Path 308" d="M179.724,176.548a3.177,3.177,0,1,0-3.177,3.177A3.18,3.18,0,0,0,179.724,176.548Zm-5.584,0a2.408,2.408,0,1,1,2.408,2.408A2.41,2.41,0,0,1,174.14,176.548Zm0,0" transform="translate(-166.706 -166.706)" fill="#858585" stroke="#c4c4c4" stroke-width="0.5"/>
    <path id="Path_309" data-name="Path 309" d="M338.462,18.578a.385.385,0,1,0-.272-.113A.387.387,0,0,0,338.462,18.578Zm0,0" transform="translate(-325.081 -17.124)" fill="#858585" stroke="#c4c4c4" stroke-width="0.5"/>
    <path id="Path_310" data-name="Path 310" d="M154.743,474.359a.385.385,0,1,0,.272.113A.387.387,0,0,0,154.743,474.359Zm0,0" transform="translate(-148.425 -456.122)" fill="#858585" stroke="#c4c4c4" stroke-width="0.5"/>
  </g>
</svg>
