<svg xmlns="http://www.w3.org/2000/svg" width="30" height="28.75" viewBox="0 0 30 28.75">
  <g id="sharing" transform="translate(0 -1)">
    <path id="Path_3850" data-name="Path 3850" d="M22.878,7.867a4.773,4.773,0,0,0,.059-.589,4.773,4.773,0,0,0-.059-.589l1.131-.856a.628.628,0,0,0,.164-.815L23.158,3.26A.628.628,0,0,0,22.371,3l-1.3.549a4.665,4.665,0,0,0-1.028-.612L19.867,1.55A.629.629,0,0,0,19.244,1h-2.03a.628.628,0,0,0-.623.55l-.173,1.383a4.685,4.685,0,0,0-1.028.612L14.087,3a.628.628,0,0,0-.789.265L12.283,5.018a.629.629,0,0,0,.164.815l1.131.856a4.541,4.541,0,0,0-.06.589,4.773,4.773,0,0,0,.059.589l-1.131.856a.628.628,0,0,0-.164.815L13.3,11.3a.628.628,0,0,0,.787.265l1.3-.55a4.665,4.665,0,0,0,1.028.612l.173,1.383a.629.629,0,0,0,.623.551h2.03a.628.628,0,0,0,.623-.55l.173-1.383a4.685,4.685,0,0,0,1.028-.612l1.3.549a.628.628,0,0,0,.789-.265l1.015-1.758a.629.629,0,0,0-.164-.815ZM18.228,9.79a2.511,2.511,0,1,1,2.511-2.511A2.511,2.511,0,0,1,18.228,9.79Z" transform="translate(2.982 0)" fill="#344f64"/>
    <path id="Path_3851" data-name="Path 3851" d="M.618,12A.628.628,0,0,0,0,12.63V24.243a.314.314,0,0,0,.314.314H3.292a.627.627,0,0,0,.6-.456l2.779-9.792A1.256,1.256,0,0,0,5.9,12.786,14.681,14.681,0,0,0,.618,12Z" transform="translate(0 2.681)" fill="#344f64"/>
    <path id="Path_3852" data-name="Path 3852" d="M26.411,18.441c-2.511,0-7.534,3.178-10.046,3.178S11.028,19.7,11.028,19.7a39.118,39.118,0,0,0,5.337.628c1.954,0,2.511-.667,2.511-1.57,0-2.2-3.732-2.539-5.621-2.827C11.4,14.9,10.439,14.08,7.369,13.82a3.027,3.027,0,0,1-.1.535l-2.523,8.89c2.857,1.3,7.777,3.358,10.358,3.358,3.767,0,13.813-5.023,13.813-6.279S27.666,18.441,26.411,18.441Z" transform="translate(1.078 3.147)" fill="#344f64"/>
  </g>
</svg>
