<svg xmlns="http://www.w3.org/2000/svg" width="41.52" height="27.68" viewBox="0 0 41.52 27.68">
  <path id="Icon_metro-visa" data-name="Icon metro-visa" d="M37.02,21.25H34.533q.252-.667,1.189-3.226l.054-.162q.072-.18.18-.469t.162-.469l.216.991ZM11,20.079,9.952,14.763A1.2,1.2,0,0,0,8.6,13.79H3.771l-.036.234q5.6,1.424,7.262,6.055Zm3.226-6.289L11.3,21.683,11,20.079a6.552,6.552,0,0,0-1.532-2.334A6.989,6.989,0,0,0,7.1,16.15l2.433,9.191h3.154l4.7-11.551H14.223Zm2.5,11.569h2.991L21.594,13.79H18.6Zm13.84-11.281a7.3,7.3,0,0,0-2.685-.487,5.841,5.841,0,0,0-3.622,1.063,3.353,3.353,0,0,0-1.424,2.757q-.018,1.838,2.613,3.136a4.984,4.984,0,0,1,1.207.739.96.96,0,0,1,.342.7.9.9,0,0,1-.541.829,2.6,2.6,0,0,1-1.243.288,6.511,6.511,0,0,1-2.811-.595l-.4-.2-.414,2.6a7.985,7.985,0,0,0,3.334.613,5.95,5.95,0,0,0,3.757-1.063,3.543,3.543,0,0,0,1.451-2.883q0-1.91-2.523-3.136a8.708,8.708,0,0,1-1.279-.757.867.867,0,0,1-.4-.685.842.842,0,0,1,.442-.694,2.27,2.27,0,0,1,1.27-.3,5.087,5.087,0,0,1,2.235.432l.27.144Zm7.659-.288H35.92a1.531,1.531,0,0,0-1.568.973l-4.433,10.6h3.136l.631-1.73h3.82q.09.4.36,1.73h2.775Zm4.721-5.767V31.09A2.339,2.339,0,0,1,40.642,33.4H3.735a2.217,2.217,0,0,1-1.622-.685,2.217,2.217,0,0,1-.685-1.622V8.023A2.217,2.217,0,0,1,2.113,6.4a2.217,2.217,0,0,1,1.622-.685H40.642a2.339,2.339,0,0,1,2.307,2.307Z" transform="translate(-1.428 -5.716)" fill="#344f64"/>
</svg>
