<svg xmlns="http://www.w3.org/2000/svg" width="17.086" height="17.549" viewBox="0 0 17.086 17.549">
  <g id="Union_6" data-name="Union 6" transform="translate(17.086 17.549) rotate(180)" fill="none">
    <path d="M7.7,17.086.157,5.219A1,1,0,0,1,1,3.683H4.531V0h8.024V3.683h3.529a1,1,0,0,1,.844,1.536L9.387,17.086a1,1,0,0,1-1.688,0Z" stroke="none"/>
    <path d="M 8.542798042297363 15.61735916137695 L 15.17390823364258 5.182803153991699 L 11.0550012588501 5.182803153991699 L 11.0550012588501 1.500002980232239 L 6.030601024627686 1.500002980232239 L 6.030601024627686 5.182803153991699 L 1.911696672439575 5.182803153991699 L 8.542798042297363 15.61735916137695 M 8.542800903320312 17.5493221282959 C 8.219020843505859 17.5493221282959 7.895250797271729 17.39475250244141 7.698600769042969 17.08560371398926 L 0.1575009077787399 5.21910285949707 C -0.265499085187912 4.55400276184082 0.2133008986711502 3.68280291557312 1.001700878143311 3.68280291557312 L 4.530601024627686 3.68280291557312 L 4.530601024627686 2.971496542159002e-06 L 12.5550012588501 2.971496542159002e-06 L 12.5550012588501 3.68280291557312 L 16.08390045166016 3.68280291557312 C 16.87320137023926 3.68280291557312 17.35110092163086 4.55400276184082 16.9281005859375 5.21910285949707 L 9.387001037597656 17.08560371398926 C 9.190350532531738 17.39475250244141 8.866570472717285 17.5493221282959 8.542800903320312 17.5493221282959 Z" stroke="none" fill="red"/>
  </g>
</svg>
